<svg width="1280" height="720" viewBox="0 0 1280 720" fill="none" xmlns="http://www.w3.org/2000/svg">
<rect x="-370" width="1650" height="720" fill="white"/>
<path fill-rule="evenodd" clip-rule="evenodd" d="M975.469 1015.95C889.426 991.079 831.896 881.358 760.086 805.378C686.418 727.431 546.378 701.763 549.994 565.768C554.162 409.025 754.986 411.578 774.653 257.562C799.662 61.7082 573.287 -150.675 660.559 -300.082C738.696 -433.851 872.493 -173.264 975.469 -86.2323C1026.81 -42.8438 1058.98 31.1393 1108.69 78.6642C1164.13 131.653 1232.63 139.195 1281.13 205.965C1368.28 325.912 1501.88 434.792 1496.87 612.973C1492.14 780.925 1359.07 873.543 1260.21 949.953C1172.53 1017.71 1072.15 1043.9 975.469 1015.95Z" fill="#FD8061"/>
<path fill-rule="evenodd" clip-rule="evenodd" d="M1215.67 -160.164C1260.11 -126.016 1251.61 -56.1183 1281.38 -8.21985C1309.05 36.3074 1376.81 54.4965 1381.78 107.163C1386.76 159.905 1341.41 203.877 1305.04 242.41C1272.19 277.23 1229.65 296.353 1185.88 314.761C1137.13 335.26 1088.54 364.203 1036.9 355.164C981.161 345.409 924.249 315.271 898.24 264.42C872.971 215.017 902.098 156.556 906.754 100.72C911.048 49.2299 903.738 -2.09135 924.418 -49.508C949.703 -107.481 977.966 -174.273 1036.37 -196.462C1095.28 -218.844 1166.02 -198.31 1215.67 -160.164Z" stroke="#393A73"/>
<path fill-rule="evenodd" clip-rule="evenodd" d="M1215.67 -144.701C1260.11 -110.554 1251.61 -40.6559 1281.38 7.24255C1309.05 51.7698 1376.81 69.9589 1381.78 122.625C1386.76 175.367 1341.41 219.34 1305.04 257.873C1272.19 292.693 1229.65 311.815 1185.88 330.224C1137.13 350.723 1088.54 379.665 1036.9 370.627C981.161 360.872 924.249 330.733 898.24 279.882C872.971 230.479 902.098 172.019 906.754 116.183C911.048 64.6923 903.738 13.3711 924.418 -34.0456C949.703 -92.0188 977.966 -158.81 1036.37 -181C1095.28 -203.382 1166.02 -182.848 1215.67 -144.701Z" stroke="#393A73"/>
<path fill-rule="evenodd" clip-rule="evenodd" d="M1215.67 -129.239C1260.11 -95.091 1251.61 -25.193 1281.38 22.7054C1309.05 67.2327 1376.81 85.4218 1381.78 138.088C1386.76 190.83 1341.41 234.803 1305.04 273.336C1272.19 308.156 1229.65 327.278 1185.88 345.686C1137.13 366.186 1088.54 395.128 1036.9 386.09C981.161 376.334 924.249 346.196 898.24 295.345C872.971 245.942 902.098 187.482 906.754 131.646C911.048 80.1552 903.738 28.8339 924.418 -18.5827C949.703 -76.5559 977.966 -143.347 1036.37 -165.537C1095.28 -187.919 1166.02 -167.385 1215.67 -129.239Z" stroke="#393A73"/>
<path fill-rule="evenodd" clip-rule="evenodd" d="M1021.86 884.521C935.813 859.647 878.282 749.926 806.473 673.946C732.805 596 592.765 570.332 596.381 434.336C600.549 277.593 801.372 280.147 821.039 126.131C846.049 -69.7234 619.674 -282.107 706.945 -431.514C785.083 -565.283 918.88 -304.696 1021.86 -217.664C1073.19 -174.275 1105.37 -100.292 1155.08 -52.7675C1210.51 0.22139 1279.01 7.76302 1327.52 74.5336C1414.66 194.48 1548.27 303.36 1543.26 481.542C1538.53 649.494 1405.46 742.112 1306.59 818.521C1218.92 886.28 1118.54 912.469 1021.86 884.521Z" stroke="#FD8061"/>
<path fill-rule="evenodd" clip-rule="evenodd" d="M960.007 884.521C873.963 859.647 816.433 749.926 744.623 673.946C670.955 596 530.915 570.332 534.532 434.336C538.699 277.593 739.523 280.147 759.19 126.131C784.199 -69.7234 557.824 -282.107 645.096 -431.514C723.233 -565.283 857.03 -304.696 960.007 -217.664C1011.34 -174.275 1043.52 -100.292 1093.23 -52.7675C1148.66 0.22139 1217.16 7.76302 1265.67 74.5336C1352.81 194.48 1486.42 303.36 1481.41 481.542C1476.68 649.494 1343.61 742.112 1244.74 818.521C1157.07 886.28 1056.69 912.469 960.007 884.521Z" stroke="#FD8061"/>
<path fill-rule="evenodd" clip-rule="evenodd" d="M1006.39 884.521C920.35 859.647 862.819 749.926 791.01 673.946C717.342 596 577.302 570.332 580.918 434.336C585.086 277.593 785.909 280.147 805.576 126.131C830.586 -69.7234 604.211 -282.107 691.483 -431.514C769.62 -565.283 903.417 -304.696 1006.39 -217.664C1057.73 -174.275 1089.9 -100.292 1139.62 -52.7675C1195.05 0.22139 1263.55 7.76302 1312.06 74.5336C1399.2 194.48 1532.81 303.36 1527.79 481.542C1523.07 649.494 1389.99 742.112 1291.13 818.521C1203.46 886.28 1103.07 912.469 1006.39 884.521Z" stroke="#FD8061"/>
<path fill-rule="evenodd" clip-rule="evenodd" d="M944.544 884.521C858.5 859.647 800.97 749.926 729.161 673.946C655.492 596 515.453 570.332 519.069 434.336C523.236 277.593 724.06 280.147 743.727 126.131C768.736 -69.7234 542.361 -282.107 629.633 -431.514C707.77 -565.283 841.567 -304.696 944.544 -217.664C995.881 -174.275 1028.05 -100.292 1077.77 -52.7675C1133.2 0.22139 1201.7 7.76302 1250.21 74.5336C1337.35 194.48 1470.96 303.36 1465.94 481.542C1461.22 649.494 1328.14 742.112 1229.28 818.521C1141.61 886.28 1041.22 912.469 944.544 884.521Z" stroke="#FD8061"/>
<path fill-rule="evenodd" clip-rule="evenodd" d="M990.93 884.521C904.887 859.647 847.356 749.926 775.547 673.946C701.879 596 561.839 570.332 565.455 434.336C569.623 277.593 770.446 280.147 790.113 126.131C815.123 -69.7234 588.748 -282.107 676.02 -431.514C754.157 -565.283 887.954 -304.696 990.93 -217.664C1042.27 -174.275 1074.44 -100.292 1124.15 -52.7675C1179.59 0.22139 1248.09 7.76302 1296.6 74.5336C1383.74 194.48 1517.34 303.36 1512.33 481.542C1507.61 649.494 1374.53 742.112 1275.67 818.521C1188 886.28 1087.61 912.469 990.93 884.521Z" stroke="#FD8061"/>
<path fill-rule="evenodd" clip-rule="evenodd" d="M975.469 884.521C889.426 859.647 831.896 749.926 760.086 673.946C686.418 596 546.378 570.332 549.994 434.336C554.162 277.593 754.986 280.147 774.653 126.131C799.662 -69.7234 573.287 -282.107 660.559 -431.514C738.696 -565.283 872.493 -304.696 975.469 -217.664C1026.81 -174.275 1058.98 -100.292 1108.69 -52.7675C1164.13 0.22139 1232.63 7.76302 1281.13 74.5336C1368.28 194.48 1501.88 303.36 1496.87 481.542C1492.14 649.494 1359.07 742.112 1260.21 818.521C1172.53 886.28 1072.15 912.469 975.469 884.521Z" stroke="#FD8061"/>
<path fill-rule="evenodd" clip-rule="evenodd" d="M1215.66 -175.627C1260.11 -141.479 1251.61 -71.5812 1281.38 -23.6827C1309.05 20.8445 1376.81 39.0336 1381.78 91.6998C1386.76 144.442 1341.41 188.415 1305.04 226.948C1272.18 261.768 1229.65 280.89 1185.87 299.298C1137.12 319.797 1088.54 348.74 1036.9 339.701C981.16 329.946 924.247 299.808 898.238 248.957C872.969 199.554 902.096 141.093 906.753 85.2575C911.046 33.767 903.736 -17.5542 924.416 -64.9709C949.701 -122.944 977.964 -189.735 1036.37 -211.925C1095.28 -234.307 1166.01 -213.773 1215.66 -175.627Z" fill="#1C1E52"/>
</svg>
